
<svg width="192" height="192" viewBox="0 0 192 192" fill="none" xmlns="http://www.w3.org/2000/svg">
<rect width="192" height="192" rx="40" fill="#4f46e5"/>
<g transform="translate(48 48) scale(4)">
<path d="M20.5 10.2c-1.2-.5-2.5.6-2.5 1.8v8c0 1.2 1.2 2.3 2.5 1.8l8-3.5c1.2-.5 1.2-2.2 0-2.8l-8-3.5Z" fill="white"/>
<path d="M12 12.3v8l8-3.5-8-4.5Z" fill="white" fill-opacity="0.7"/>
<path d="M12 21.8V14l8 3.5-8 4.3Z" fill="white" fill-opacity="0.7"/>
<path d="M2.5 6.8c-1.2-.5-2.5.6-2.5 1.8v8c0 1.2 1.2 2.3 2.5 1.8l8-3.5c1.2-.5 1.2-2.2 0-2.8L2.5 6.8Z" fill="white"/>
<path d="M12 8.3v8l-8-3.5 8-4.5Z" fill="white" fill-opacity="0.7"/>
</g>
</svg>
